<svg width="45" height="50" viewBox="0 0 45 50" fill="none" xmlns="http://www.w3.org/2000/svg">
<path d="M6 0.566895L13.3076 7.44229H33.6924V26.6214L41 33.4968V0.566895H6Z" fill="#AFB1B8"/>
<path d="M0 7.15259V39.1418H34V26.4264L13.5231 7.16051L0 7.15259ZM27.5231 34.4626H5.38008V12.9482H6.9453V33.0058H27.5231V34.4626Z" fill="#AFB1B8"/>
<path d="M9.79102 45.0942L10.6089 43.4097H11.2925L10.1011 45.6558V46.9644H9.48096V45.6558L8.28711 43.4097H8.97314L9.79102 45.0942ZM13.3018 46.1367H11.9248L11.6367 46.9644H10.9946L12.3374 43.4097H12.8916L14.2368 46.9644H13.5923L13.3018 46.1367ZM12.0981 45.6387H13.1284L12.6133 44.1641L12.0981 45.6387ZM15.7358 46.0049C15.7358 45.8405 15.7806 45.6899 15.8701 45.5532C15.9596 45.4149 16.1362 45.2513 16.3999 45.0625C16.2616 44.8883 16.1647 44.7402 16.1094 44.6182C16.0557 44.4961 16.0288 44.3781 16.0288 44.2642C16.0288 43.9858 16.1134 43.7661 16.2827 43.605C16.452 43.4422 16.6799 43.3608 16.9663 43.3608C17.2251 43.3608 17.4367 43.4373 17.6011 43.5903C17.7671 43.7417 17.8501 43.9297 17.8501 44.1543C17.8501 44.3024 17.8127 44.4391 17.7378 44.5645C17.6629 44.6882 17.54 44.8118 17.3691 44.9355L17.1274 45.1113L17.8135 45.9219C17.9128 45.7266 17.9624 45.5093 17.9624 45.27H18.4775C18.4775 45.7078 18.375 46.0667 18.1699 46.3467L18.6924 46.9644H18.0039L17.8037 46.7275C17.5498 46.918 17.2471 47.0132 16.8955 47.0132C16.5439 47.0132 16.2624 46.9204 16.0508 46.7349C15.8408 46.5477 15.7358 46.3044 15.7358 46.0049ZM16.9126 46.5396C17.1128 46.5396 17.3 46.4728 17.4741 46.3394L16.6978 45.4238L16.6221 45.4775C16.4268 45.6257 16.3291 45.7949 16.3291 45.9854C16.3291 46.1497 16.382 46.2832 16.4878 46.3857C16.5936 46.4883 16.7352 46.5396 16.9126 46.5396ZM16.5854 44.2495C16.5854 44.3862 16.6693 44.5579 16.8369 44.7646L17.1079 44.5791L17.1836 44.5181C17.2845 44.4285 17.335 44.3138 17.335 44.1738C17.335 44.0811 17.3 44.0021 17.23 43.937C17.16 43.8703 17.0713 43.8369 16.9639 43.8369C16.8483 43.8369 16.7563 43.876 16.688 43.9541C16.6196 44.0322 16.5854 44.1307 16.5854 44.2495ZM23.043 45.8071C23.0072 46.1864 22.8672 46.4826 22.623 46.6958C22.3789 46.9074 22.0542 47.0132 21.6489 47.0132C21.3657 47.0132 21.1159 46.9465 20.8994 46.813C20.6846 46.6779 20.5186 46.4867 20.4014 46.2393C20.2842 45.9919 20.2231 45.7046 20.2183 45.3774V45.0454C20.2183 44.7101 20.2777 44.4147 20.3965 44.1592C20.5153 43.9036 20.6854 43.7067 20.9067 43.5684C21.1297 43.43 21.3869 43.3608 21.6782 43.3608C22.0705 43.3608 22.3862 43.4674 22.6255 43.6807C22.8647 43.8939 23.0039 44.195 23.043 44.584H22.4277C22.3984 44.3285 22.3236 44.1445 22.2031 44.0322C22.0843 43.9183 21.9093 43.8613 21.6782 43.8613C21.4097 43.8613 21.203 43.9598 21.0581 44.1567C20.9149 44.3521 20.8416 44.6393 20.8384 45.0186V45.3335C20.8384 45.7176 20.9067 46.0106 21.0435 46.2124C21.1818 46.4142 21.3836 46.5151 21.6489 46.5151C21.8914 46.5151 22.0737 46.4606 22.1958 46.3516C22.3179 46.2425 22.3952 46.061 22.4277 45.8071H23.043ZM26.4341 45.2798C26.4341 45.6281 26.3739 45.9341 26.2534 46.1978C26.133 46.4598 25.9604 46.6616 25.7358 46.8032C25.5129 46.9432 25.2557 47.0132 24.9644 47.0132C24.6763 47.0132 24.4191 46.9432 24.1929 46.8032C23.9683 46.6616 23.7941 46.4606 23.6704 46.2002C23.5483 45.9398 23.4865 45.6395 23.4849 45.2993V45.0991C23.4849 44.7524 23.5459 44.4465 23.668 44.1812C23.7917 43.9159 23.965 43.7132 24.188 43.5732C24.4126 43.4316 24.6698 43.3608 24.9595 43.3608C25.2492 43.3608 25.5055 43.4308 25.7285 43.5708C25.9531 43.7091 26.1265 43.9093 26.2485 44.1714C26.3706 44.4318 26.4325 44.7354 26.4341 45.082V45.2798ZM25.8164 45.0942C25.8164 44.7004 25.7415 44.3984 25.5918 44.1885C25.4437 43.9785 25.2329 43.8735 24.9595 43.8735C24.6925 43.8735 24.4834 43.9785 24.332 44.1885C24.1823 44.3968 24.1058 44.6922 24.1025 45.0747V45.2798C24.1025 45.6704 24.1782 45.9723 24.3296 46.1855C24.4826 46.3988 24.6942 46.5054 24.9644 46.5054C25.2378 46.5054 25.4478 46.4012 25.5942 46.1929C25.7424 45.9845 25.8164 45.6802 25.8164 45.2798V45.0942Z" fill="#AFB1B8"/>
</svg>
