<svg width="89" height="46" viewBox="0 0 89 46" fill="none" xmlns="http://www.w3.org/2000/svg">
<path d="M44.7404 21.7765C44.3224 21.1701 44.1225 20.4534 44.1699 19.732V16.7678C44.1699 15.8591 44.359 15.1685 44.7372 14.6961C45.1154 14.2237 45.7649 13.9885 46.6858 13.9905C47.5512 13.9905 48.1654 14.1915 48.5287 14.5936C48.9249 15.1066 49.1176 15.7339 49.0735 16.3667V17.0633H47.5255V16.3577C47.531 16.1267 47.516 15.8957 47.4807 15.6671C47.4584 15.5108 47.3804 15.3662 47.2595 15.257C47.1006 15.1393 46.9003 15.0822 46.6987 15.0972C46.4866 15.0823 46.2762 15.1425 46.1089 15.266C45.9741 15.387 45.8842 15.5456 45.8525 15.7184C45.8081 15.9603 45.7878 16.2056 45.7916 16.4511V20.0486C45.7672 20.3957 45.8355 20.743 45.9904 21.0588C46.0673 21.1657 46.1743 21.2504 46.2993 21.3036C46.4243 21.3569 46.5625 21.3765 46.6987 21.3604C46.897 21.3757 47.0937 21.3173 47.2467 21.1975C47.3728 21.0798 47.454 20.926 47.4775 20.7603C47.5136 20.5216 47.5297 20.2806 47.5255 20.0396V19.3098H49.0735V19.9763C49.117 20.6359 48.9289 21.2906 48.5383 21.8398C48.1825 22.2801 47.5768 22.5002 46.6858 22.5002C45.7949 22.5002 45.1218 22.265 44.7404 21.7765Z" fill="#AFB1B8"/>
<path d="M51.1861 21.8067C50.7951 21.3453 50.5996 20.6728 50.5996 19.7833V16.6652C50.5996 15.7847 50.7951 15.1183 51.1861 14.666C51.5771 14.2136 52.2309 13.9885 53.1475 13.9905C54.0577 13.9905 54.7083 14.2156 55.0993 14.666C55.4903 15.1183 55.689 15.7847 55.689 16.6652V19.7833C55.689 20.6638 55.4903 21.3393 55.0929 21.8037C54.6955 22.2681 54.0481 22.5002 53.1475 22.5002C52.2469 22.5002 51.5803 22.265 51.1861 21.8067ZM53.8686 21.0588C54.0086 20.7698 54.0724 20.4533 54.0545 20.1361V16.3185C54.0724 16.0074 54.0097 15.697 53.8718 15.4138C53.7933 15.3047 53.6837 15.2186 53.5556 15.1652C53.4276 15.1119 53.2861 15.0936 53.1475 15.1123C53.0084 15.094 52.8667 15.1126 52.7382 15.1658C52.6097 15.2191 52.4996 15.305 52.42 15.4138C52.279 15.6961 52.2152 16.0071 52.2341 16.3185V20.1542C52.2146 20.4715 52.2785 20.7884 52.42 21.0769C52.5102 21.1742 52.6216 21.2522 52.7465 21.3056C52.8714 21.359 53.0071 21.3866 53.1443 21.3866C53.2815 21.3866 53.4172 21.359 53.5421 21.3056C53.667 21.2522 53.7783 21.1742 53.8686 21.0769V21.0588Z" fill="#AFB1B8"/>
<path d="M57.551 14.0815H59.2176L60.4707 19.8344L61.7527 14.0815H63.3744L63.5378 22.3853H62.3392L62.211 16.6143L60.9739 22.3853H60.0124L58.7304 16.5932L58.6119 22.3853H57.4004L57.551 14.0815Z" fill="#AFB1B8"/>
<path d="M65.4061 14.0815H68.0021C69.4977 14.0815 70.2455 14.8675 70.2455 16.4394C70.2455 17.9449 69.4581 18.6967 67.8835 18.6947H66.9989V22.3853H65.3965L65.4061 14.0815ZM67.6239 17.6304C67.7822 17.6493 67.943 17.6356 68.0952 17.5903C68.2474 17.545 68.3873 17.4692 68.5052 17.3681C68.689 17.0876 68.77 16.7582 68.736 16.4303C68.7444 16.177 68.7185 15.9237 68.6591 15.6766C68.6362 15.594 68.5961 15.5165 68.5411 15.4487C68.486 15.3809 68.4172 15.3241 68.3386 15.2816C68.1161 15.1812 67.8702 15.1355 67.6239 15.1489H67.0021V17.6304H67.6239Z" fill="#AFB1B8"/>
<path d="M72.5559 14.0815H74.277L76.0428 22.3853H74.5494L74.2 20.4706H72.6649L72.3059 22.3853H70.79L72.5559 14.0815ZM74.027 19.5088L73.4277 16.0233L72.8283 19.5088H74.027Z" fill="#AFB1B8"/>
<path d="M77.469 14.0815H78.5908L80.7381 18.8183V14.0815H82.0681V22.3853H81.0009L78.8407 17.4404V22.3853H77.4658L77.469 14.0815Z" fill="#AFB1B8"/>
<path d="M85.1836 19.2191L83.3984 14.093H84.9015L85.9912 17.3858L87.0136 14.093H88.4846L86.7219 19.2191V22.3853H85.1836V19.2191Z" fill="#AFB1B8"/>
<path d="M47.2146 26.0159V26.4501H45.907V29.8242H45.3589V26.4501H44.0449V26.0159H47.2146Z" fill="#AFB1B8"/>
<path d="M51.3141 29.8246H50.891C50.8481 29.8271 50.8057 29.8142 50.7724 29.7884C50.7404 29.7663 50.7159 29.7359 50.7019 29.701L50.3238 28.7964H48.5097L48.1316 29.701C48.1208 29.7388 48.1011 29.7738 48.0739 29.8035C48.0403 29.8287 47.9982 29.8416 47.9553 29.8397H47.5322L49.1347 26.0315H49.6924L51.3141 29.8246ZM48.6604 28.4105H50.1731L49.5321 26.8607C49.4848 26.7435 49.4452 26.6236 49.4135 26.5019C49.3911 26.5742 49.3719 26.6436 49.3526 26.7039L49.295 26.8637L48.6604 28.4105Z" fill="#AFB1B8"/>
<path d="M54.0761 29.4505C54.1765 29.4554 54.2771 29.4554 54.3774 29.4505C54.4641 29.4421 54.5498 29.4269 54.6338 29.4052C54.7123 29.3871 54.7894 29.3639 54.8646 29.3359C54.9351 29.3087 55.0056 29.2756 55.0793 29.2424V28.3859H54.4383C54.4225 28.3868 54.4066 28.3845 54.3917 28.3793C54.3768 28.3741 54.3632 28.3661 54.3518 28.3558C54.3413 28.3472 54.3329 28.3365 54.3274 28.3245C54.3218 28.3125 54.3192 28.2995 54.3197 28.2864V27.9939H55.5632V29.4535C55.4617 29.5218 55.3546 29.5823 55.2427 29.6344C55.1285 29.6875 55.0094 29.7309 54.887 29.7641C54.7559 29.8004 54.6219 29.8266 54.4864 29.8425C54.331 29.8587 54.1748 29.8668 54.0185 29.8666C53.7421 29.8688 53.4678 29.8207 53.2108 29.7249C52.9709 29.6341 52.7529 29.4987 52.5698 29.3268C52.3914 29.1532 52.2509 28.9482 52.1564 28.7237C52.0554 28.4712 52.0054 28.2033 52.009 27.9336C52.0056 27.6622 52.0545 27.3924 52.1532 27.1374C52.2454 26.9117 52.3861 26.7064 52.5666 26.5343C52.7495 26.363 52.9676 26.2285 53.2076 26.1392C53.4821 26.0421 53.7733 25.994 54.0665 25.9975C54.2157 25.9973 54.3647 26.0084 54.512 26.0307C54.6423 26.0506 54.7701 26.083 54.8934 26.1272C55.0055 26.1668 55.1129 26.2173 55.2139 26.2779C55.3121 26.3375 55.4053 26.404 55.4927 26.477L55.3389 26.7122C55.3268 26.7337 55.3089 26.7517 55.2869 26.7645C55.2649 26.7772 55.2397 26.7842 55.2139 26.7846C55.1784 26.7835 55.144 26.7731 55.1145 26.7544C55.0665 26.7303 55.0152 26.7001 54.9575 26.664C54.8894 26.6238 54.8175 26.5894 54.7428 26.5614C54.6472 26.5254 54.5486 26.4971 54.4479 26.477C54.3137 26.4537 54.1774 26.4426 54.0409 26.4438C53.8294 26.4416 53.6195 26.4774 53.4223 26.5494C53.244 26.6167 53.0833 26.7196 52.9512 26.8509C52.8184 26.9878 52.7169 27.149 52.6532 27.3244C52.51 27.7369 52.51 28.1815 52.6532 28.594C52.7233 28.7731 52.8325 28.9364 52.9737 29.0735C53.1051 29.2042 53.2646 29.307 53.4416 29.3751C53.6454 29.4409 53.8614 29.4666 54.0761 29.4505Z" fill="#AFB1B8"/>
<path d="M59.1856 29.39H60.9355V29.8242H58.6504V26.0159H59.1984L59.1856 29.39Z" fill="#AFB1B8"/>
<path d="M62.7551 29.8242H62.207V26.0159H62.7551V29.8242Z" fill="#AFB1B8"/>
<path d="M64.7939 26.0339C64.8265 26.0514 64.8548 26.075 64.8772 26.1033L67.22 28.9743C67.2168 28.9291 67.2168 28.8838 67.22 28.8386C67.22 28.7964 67.22 28.7541 67.22 28.7149V26.0007H67.6975V29.8247H67.4219C67.3811 29.8279 67.3401 29.8206 67.3033 29.8036C67.27 29.7846 67.2407 29.7601 67.2168 29.7312L64.8772 26.8632C64.8772 26.9085 64.8772 26.9507 64.8772 26.9929C64.8772 27.0351 64.8772 27.0743 64.8772 27.1105V29.8247H64.4189V26.0158H64.7042C64.7351 26.0159 64.7657 26.022 64.7939 26.0339Z" fill="#AFB1B8"/>
<path d="M71.7328 26.0159V26.435H69.7906V27.6925H71.3642V28.0966H69.7906V29.3963H71.7328V29.8154H69.2266V26.0159H71.7328Z" fill="#AFB1B8"/>
<path d="M14.304 2.49656L38.6389 8.99763V31.7785L14.304 25.2804V2.49656ZM12.7432 0.554688V26.3871L40.1965 33.7234V7.89402L12.7432 0.554688Z" fill="#AFB1B8"/>
<path d="M27.4565 45.7153L0 38.3728V12.543L27.4565 19.8824V45.7153Z" fill="#AFB1B8"/>
<path d="M13.1978 2.20406L37.2155 8.62365L27.0014 18.2365L2.98057 11.8138L13.1978 2.20406ZM12.7427 0.554688L0 12.5436L27.4565 19.8828L40.196 7.89395L12.7427 0.554688Z" fill="#AFB1B8"/>
<path d="M29.001 44.262L40.1957 33.7266L29.001 30.7324V44.262Z" fill="#AFB1B8"/>
</svg>
