<svg width="41" height="43" viewBox="0 0 41 43" fill="none" xmlns="http://www.w3.org/2000/svg">
<path d="M6.34566 42.0798C6.36067 42.0802 6.37546 42.0834 6.38915 42.0893C6.40284 42.0951 6.41516 42.1035 6.42539 42.1139L6.63116 42.3283C6.47144 42.5018 6.27403 42.6405 6.05243 42.7351C5.79293 42.8382 5.51326 42.888 5.23192 42.8812C4.96755 42.8864 4.70488 42.8399 4.46028 42.7448C4.23964 42.6574 4.04139 42.5262 3.87898 42.3599C3.71321 42.1875 3.58553 41.9854 3.50344 41.7656C3.41355 41.5205 3.36916 41.2625 3.37226 41.0031C3.36861 40.742 3.4166 40.4826 3.51373 40.2382C3.60359 40.017 3.73912 39.8149 3.91241 39.6439C4.08805 39.4762 4.29815 39.3443 4.52973 39.2566C4.78306 39.1636 5.05283 39.1173 5.32452 39.1202C5.57689 39.1143 5.82792 39.1566 6.06272 39.2444C6.26644 39.3281 6.45349 39.4443 6.61573 39.5879L6.4434 39.8168C6.43149 39.833 6.41669 39.847 6.39967 39.8582C6.37934 39.8714 6.35477 39.8775 6.33022 39.8753C6.30353 39.8735 6.27779 39.8651 6.25563 39.8509L6.16303 39.79L6.03443 39.7121C5.97891 39.6831 5.92133 39.6579 5.86209 39.6366C5.78581 39.6107 5.70756 39.5904 5.62803 39.5757C5.52709 39.5581 5.42457 39.5499 5.32195 39.5513C5.12631 39.549 4.93215 39.5838 4.75093 39.6536C4.58192 39.7183 4.42937 39.8163 4.30338 39.9411C4.17512 40.0738 4.07629 40.2295 4.01273 40.399C3.94029 40.5929 3.90458 40.7974 3.90727 41.0031C3.90418 41.212 3.93988 41.4198 4.01273 41.617C4.07549 41.785 4.1725 41.9398 4.29823 42.0725C4.41604 42.1962 4.56206 42.2928 4.72521 42.3551C4.89311 42.421 5.07333 42.4541 5.25507 42.4525C5.36005 42.454 5.465 42.4475 5.56887 42.433C5.73848 42.4134 5.90118 42.3576 6.04472 42.2698C6.11671 42.2248 6.18467 42.1743 6.24792 42.1188C6.27436 42.0949 6.30914 42.081 6.34566 42.0798Z" fill="#AFB1B8"/>
<path d="M12.2871 41.0027C12.2903 41.2611 12.2432 41.5179 12.1482 41.7602C12.0644 41.9799 11.9323 42.1804 11.7608 42.3483C11.5892 42.5162 11.382 42.6478 11.1528 42.7344C10.6492 42.9163 10.0925 42.9163 9.58896 42.7344C9.36125 42.6465 9.15539 42.5146 8.98452 42.3472C8.81305 42.1762 8.68004 41.974 8.59356 41.7529C8.40827 41.2623 8.40827 40.726 8.59356 40.2354C8.6813 40.0142 8.81414 39.8114 8.98452 39.6387C9.15685 39.4765 9.3626 39.3497 9.58896 39.2661C10.0919 39.0809 10.6499 39.0809 11.1528 39.2661C11.3813 39.3539 11.588 39.4858 11.7598 39.6533C11.9292 39.8226 12.0612 40.0222 12.1482 40.2403C12.2435 40.4842 12.2906 40.7426 12.2871 41.0027ZM11.747 41.0027C11.751 40.7959 11.718 40.59 11.6492 40.3938C11.5916 40.2256 11.4979 40.0706 11.374 39.9383C11.2534 39.8132 11.1049 39.715 10.9393 39.6509C10.5734 39.5177 10.1684 39.5177 9.80245 39.6509C9.63684 39.715 9.48836 39.8132 9.36776 39.9383C9.24215 40.0698 9.14747 40.225 9.08997 40.3938C8.9591 40.7903 8.9591 41.2151 9.08997 41.6116C9.14803 41.7801 9.24265 41.9352 9.36776 42.0671C9.48851 42.1914 9.637 42.2888 9.80245 42.352C10.169 42.4818 10.5728 42.4818 10.9393 42.352C11.1048 42.2888 11.2533 42.1914 11.374 42.0671C11.4974 41.9344 11.591 41.7795 11.6492 41.6116C11.7183 41.4154 11.7513 41.2094 11.747 41.0027Z" fill="#AFB1B8"/>
<path d="M16.3408 41.6411L16.3948 41.7775C16.4154 41.7288 16.4334 41.685 16.4539 41.6411C16.4736 41.5953 16.4959 41.5506 16.5208 41.5072L17.8352 39.2447C17.8609 39.2057 17.884 39.1814 17.9098 39.1741C17.9447 39.164 17.9813 39.1599 18.0178 39.1619H18.4062V42.8418H17.9458V40.136C17.9458 40.102 17.9458 40.063 17.9458 40.0216C17.9433 39.9794 17.9433 39.9371 17.9458 39.8949L16.6237 42.1891C16.6069 42.2235 16.58 42.2525 16.5463 42.2728C16.5125 42.2931 16.4733 42.3038 16.4334 42.3036H16.3588C16.3187 42.3041 16.2794 42.2936 16.2456 42.2732C16.2118 42.2529 16.185 42.2237 16.1684 42.1891L14.8078 39.8803C14.8078 39.9242 14.8078 39.968 14.8078 40.0118C14.8078 40.0557 14.8078 40.0946 14.8078 40.1287V42.8345H14.3628V39.1619H14.7512C14.7877 39.1599 14.8243 39.164 14.8592 39.1741C14.8911 39.189 14.9165 39.214 14.9312 39.2447L16.2739 41.5096C16.3003 41.5515 16.3227 41.5955 16.3408 41.6411Z" fill="#AFB1B8"/>
<path d="M21.2869 41.4581V42.8364H20.7725V39.1618H21.9196C22.1362 39.1578 22.3521 39.1849 22.5601 39.2421C22.7266 39.2868 22.881 39.3649 23.0128 39.471C23.127 39.5705 23.2151 39.6939 23.27 39.8314C23.3307 39.9813 23.3604 40.1409 23.3575 40.3014C23.3597 40.4626 23.3274 40.6225 23.2623 40.7714C23.2005 40.9124 23.1054 41.0381 22.9845 41.1391C22.8525 41.2497 22.6974 41.3327 22.5292 41.3826C22.329 41.4432 22.1195 41.472 21.9093 41.4679L21.2869 41.4581ZM21.2869 41.0636H21.9093C22.0446 41.0653 22.1792 41.0464 22.308 41.0076C22.4143 40.9737 22.5123 40.9199 22.5961 40.8493C22.6734 40.7819 22.7332 40.6986 22.771 40.6058C22.8131 40.5076 22.8341 40.4025 22.8327 40.2965C22.8387 40.1944 22.8211 40.0922 22.7811 39.9972C22.7412 39.9021 22.6798 39.8165 22.6013 39.7462C22.4047 39.6009 22.1579 39.5306 21.9093 39.5489H21.2869V41.0636Z" fill="#AFB1B8"/>
<path d="M28.2007 42.8417H27.7943C27.7536 42.8432 27.7135 42.8311 27.6812 42.8076C27.652 42.7846 27.6291 42.7554 27.6143 42.7223L27.2645 41.8333H25.5077L25.145 42.7223C25.1317 42.7548 25.1095 42.7834 25.0807 42.8051C25.048 42.8301 25.007 42.843 24.965 42.8417H24.5586L26.1019 39.1614H26.6369L28.2007 42.8417ZM25.6543 41.4753H27.105L26.4928 39.9773C26.4461 39.8646 26.4074 39.7491 26.3771 39.6315L26.3179 39.8239C26.2999 39.8823 26.2794 39.9359 26.2614 39.9798L25.6543 41.4753Z" fill="#AFB1B8"/>
<path d="M30.4233 39.1785C30.4541 39.1945 30.4805 39.217 30.5005 39.2443L32.7511 42.0185C32.7511 41.9746 32.7511 41.9308 32.7511 41.8894C32.7511 41.848 32.7511 41.8066 32.7511 41.7676V39.1615H33.2115V42.8417H32.9543C32.9178 42.8428 32.8816 42.8352 32.8489 42.8198C32.8171 42.8022 32.7892 42.7791 32.7666 42.7516L30.5185 39.9798C30.521 40.022 30.521 40.0643 30.5185 40.1065C30.5185 40.1479 30.5185 40.1844 30.5185 40.2185V42.8417H30.0581V39.1615H30.3308C30.3626 39.1606 30.3942 39.1664 30.4233 39.1785Z" fill="#AFB1B8"/>
<path d="M37.0028 41.378V42.8394H36.4883V41.378L35.0659 39.1615H35.5263C35.566 39.1593 35.6052 39.1705 35.6369 39.1932C35.6649 39.2168 35.6884 39.2448 35.7064 39.276L36.5964 40.7057C36.6324 40.7666 36.6632 40.8226 36.689 40.8762C36.7147 40.9298 36.7353 40.981 36.7533 41.0321L36.8201 40.8738C36.8451 40.8159 36.8743 40.7597 36.9076 40.7057L37.7847 39.2663C37.8031 39.2375 37.8256 39.2113 37.8516 39.1883C37.8821 39.1631 37.9217 39.15 37.9622 39.1518H38.4277L37.0028 41.378Z" fill="#AFB1B8"/>
<path d="M16.0859 32.9858C16.3097 33.0126 16.5361 33.0345 16.765 33.054C20.2356 31.5839 23.1716 29.1778 25.206 26.1365C27.2404 23.0952 28.283 19.5536 28.2033 15.9543L24.3785 12.3328C25.1562 16.1648 24.7925 20.1262 23.3279 23.7737C21.8634 27.4211 19.3559 30.6108 16.0859 32.9858Z" fill="#AFB1B8"/>
<path d="M14.7202 32.8172L14.8231 32.8367C18.3173 30.4701 20.9814 27.1654 22.4708 23.3499C23.9601 19.5344 24.2063 15.3835 23.1774 11.4341L17.7296 6.27588C19.9331 10.5158 20.82 15.261 20.2873 19.9595C19.7546 24.658 17.824 29.1167 14.7202 32.8172Z" fill="#AFB1B8"/>
<path d="M33.1959 20.2065C32.2704 24.1613 30.0225 27.728 26.7861 30.3771C25.841 31.155 24.8214 31.8481 23.7407 32.4473C26.3761 31.7138 28.7983 30.4171 30.8207 28.6571C32.8432 26.8972 34.4117 24.7209 35.4054 22.2962L33.1959 20.2065Z" fill="#AFB1B8"/>
<path d="M32.3292 19.6244L29.1835 16.6458C29.1233 20.0417 28.1037 23.3604 26.2306 26.257C24.3575 29.1536 21.6993 31.5223 18.5322 33.1169H18.5477C19.2534 33.1167 19.9586 33.0768 20.6594 32.9976C23.6192 31.8537 26.2339 30.0338 28.2702 27.7003C30.3064 25.3668 31.7009 22.5923 32.3292 19.6244Z" fill="#AFB1B8"/>
<path d="M15.1757 4.10052L11.4229 0.542236C8.06808 1.76977 5.18278 3.92772 3.14464 6.73366C1.1065 9.5396 0.0104686 12.8628 0 16.2683H0C0.0125737 20.0313 1.3502 23.6829 3.80116 26.6451C6.25213 29.6072 9.67642 31.7108 13.5321 32.6228C16.974 28.6521 18.9892 23.7457 19.2847 18.6164C19.5803 13.4871 18.1409 8.40222 15.1757 4.10052Z" fill="#AFB1B8"/>
<path d="M41.0002 19.0765C40.9867 14.612 39.1076 10.334 35.7735 7.17703C32.4394 4.02012 27.9213 2.24089 23.2062 2.22804C21.0274 2.2259 18.8671 2.60659 16.835 3.35078L39.8119 25.1067C40.5987 23.1836 41.0016 21.1389 41.0002 19.0765Z" fill="#AFB1B8"/>
</svg>
