<svg width="69" height="43" viewBox="0 0 69 43" fill="none" xmlns="http://www.w3.org/2000/svg">
<path d="M12.4022 13.2939H12.3995C10.1372 13.2939 8.30322 15.0701 8.30322 17.2611V17.2638C8.30322 19.4548 10.1372 21.231 12.3995 21.231H12.4022C14.6645 21.231 16.4985 19.4548 16.4985 17.2638V17.2611C16.4985 15.0701 14.6645 13.2939 12.4022 13.2939Z" fill="#AFB1B8"/>
<path d="M42.6368 12.0256C42.6304 8.98239 41.3795 6.06555 39.1579 3.91343C36.9363 1.7613 33.925 0.549146 30.7828 0.542236V0.542236C27.6397 0.547765 24.6269 1.75931 22.4042 3.91158C20.1814 6.06386 18.9298 8.98148 18.9233 12.0256V28.8074C18.9233 28.8074 42.6341 26.2497 42.6368 12.0282V12.0256Z" fill="#AFB1B8"/>
<path d="M0 34.3155C0.00569902 36.433 0.876554 38.4622 2.42227 39.9598C3.96798 41.4573 6.06289 42.3014 8.24921 42.3076C10.4351 42.3014 12.5296 41.4577 14.0752 39.9607C15.6208 38.4637 16.492 36.4351 16.4984 34.3181V22.6411C16.4984 22.6411 0 24.4221 0 34.3155ZM8.24921 36.4077C7.82196 36.4077 7.40431 36.285 7.04907 36.0551C6.69383 35.8252 6.41696 35.4984 6.25346 35.1161C6.08996 34.7338 6.04718 34.3132 6.13053 33.9073C6.21388 33.5015 6.41962 33.1287 6.72173 32.8361C7.02383 32.5435 7.40874 32.3442 7.82778 32.2635C8.24681 32.1828 8.68115 32.2242 9.07587 32.3826C9.4706 32.5409 9.80797 32.8091 10.0453 33.1531C10.2827 33.4972 10.4094 33.9017 10.4094 34.3155C10.4105 34.5909 10.3554 34.8638 10.2473 35.1185C10.1392 35.3733 9.98026 35.6048 9.77956 35.8C9.57886 35.9951 9.34036 36.1499 9.07775 36.2555C8.81513 36.3611 8.53357 36.4155 8.24921 36.4155V36.4077Z" fill="#AFB1B8"/>
<path d="M25.0889 35.1357H23.4014V36.8789H22.5225V32.6133H25.2998V33.3252H23.4014V34.4268H25.0889V35.1357ZM29.3135 34.8428C29.3135 35.2627 29.2393 35.6309 29.0908 35.9473C28.9424 36.2637 28.7295 36.5078 28.4521 36.6797C28.1768 36.8516 27.8604 36.9375 27.5029 36.9375C27.1494 36.9375 26.834 36.8525 26.5566 36.6826C26.2793 36.5127 26.0645 36.2705 25.9121 35.9561C25.7598 35.6396 25.6826 35.2764 25.6807 34.8662V34.6553C25.6807 34.2354 25.7559 33.8662 25.9062 33.5479C26.0586 33.2275 26.2725 32.9824 26.5479 32.8125C26.8252 32.6406 27.1416 32.5547 27.4971 32.5547C27.8525 32.5547 28.168 32.6406 28.4434 32.8125C28.7207 32.9824 28.9346 33.2275 29.085 33.5479C29.2373 33.8662 29.3135 34.2344 29.3135 34.6523V34.8428ZM28.4229 34.6494C28.4229 34.2021 28.3428 33.8623 28.1826 33.6299C28.0225 33.3975 27.7939 33.2812 27.4971 33.2812C27.2021 33.2812 26.9746 33.3965 26.8145 33.627C26.6543 33.8555 26.5732 34.1914 26.5713 34.6348V34.8428C26.5713 35.2783 26.6514 35.6162 26.8115 35.8564C26.9717 36.0967 27.2021 36.2168 27.5029 36.2168C27.7979 36.2168 28.0244 36.1016 28.1826 35.8711C28.3408 35.6387 28.4209 35.3008 28.4229 34.8574V34.6494ZM32.1641 35.7598C32.1641 35.5938 32.1055 35.4668 31.9883 35.3789C31.8711 35.2891 31.6602 35.1953 31.3555 35.0977C31.0508 34.998 30.8096 34.9004 30.6318 34.8047C30.1475 34.543 29.9053 34.1904 29.9053 33.7471C29.9053 33.5166 29.9697 33.3115 30.0986 33.1318C30.2295 32.9502 30.416 32.8086 30.6582 32.707C30.9023 32.6055 31.1758 32.5547 31.4785 32.5547C31.7832 32.5547 32.0547 32.6104 32.293 32.7217C32.5312 32.8311 32.7158 32.9863 32.8467 33.1875C32.9795 33.3887 33.0459 33.6172 33.0459 33.873H32.167C32.167 33.6777 32.1055 33.5264 31.9824 33.4189C31.8594 33.3096 31.6865 33.2549 31.4639 33.2549C31.249 33.2549 31.082 33.3008 30.9629 33.3926C30.8438 33.4824 30.7842 33.6016 30.7842 33.75C30.7842 33.8887 30.8535 34.0049 30.9922 34.0986C31.1328 34.1924 31.3389 34.2803 31.6104 34.3623C32.1104 34.5127 32.4746 34.6992 32.7031 34.9219C32.9316 35.1445 33.0459 35.4219 33.0459 35.7539C33.0459 36.123 32.9062 36.4131 32.627 36.624C32.3477 36.833 31.9717 36.9375 31.499 36.9375C31.1709 36.9375 30.8721 36.8779 30.6025 36.7588C30.333 36.6377 30.127 36.4727 29.9844 36.2637C29.8438 36.0547 29.7734 35.8125 29.7734 35.5371H30.6553C30.6553 36.0078 30.9365 36.2432 31.499 36.2432C31.708 36.2432 31.8711 36.2012 31.9883 36.1172C32.1055 36.0312 32.1641 35.9121 32.1641 35.7598ZM36.8545 33.3252H35.5479V36.8789H34.6689V33.3252H33.3799V32.6133H36.8545V33.3252ZM39.9248 35.0303H38.2373V36.1729H40.2178V36.8789H37.3584V32.6133H40.2119V33.3252H38.2373V34.3418H39.9248V35.0303ZM42.3125 35.3174H41.6123V36.8789H40.7334V32.6133H42.3184C42.8223 32.6133 43.2109 32.7256 43.4844 32.9502C43.7578 33.1748 43.8945 33.4922 43.8945 33.9023C43.8945 34.1934 43.8311 34.4365 43.7041 34.6318C43.5791 34.8252 43.3887 34.9795 43.1328 35.0947L44.0557 36.8379V36.8789H43.1123L42.3125 35.3174ZM41.6123 34.6055H42.3213C42.542 34.6055 42.7129 34.5498 42.834 34.4385C42.9551 34.3252 43.0156 34.1699 43.0156 33.9727C43.0156 33.7715 42.958 33.6133 42.8428 33.498C42.7295 33.3828 42.5547 33.3252 42.3184 33.3252H41.6123V34.6055ZM46.9385 35.376V36.8789H46.0596V32.6133H47.7236C48.0439 32.6133 48.3252 32.6719 48.5674 32.7891C48.8115 32.9062 48.999 33.0732 49.1299 33.29C49.2607 33.5049 49.3262 33.75 49.3262 34.0254C49.3262 34.4434 49.1826 34.7734 48.8955 35.0156C48.6104 35.2559 48.2148 35.376 47.709 35.376H46.9385ZM46.9385 34.6641H47.7236C47.9561 34.6641 48.1328 34.6094 48.2539 34.5C48.377 34.3906 48.4385 34.2344 48.4385 34.0312C48.4385 33.8223 48.377 33.6533 48.2539 33.5244C48.1309 33.3955 47.9609 33.3291 47.7441 33.3252H46.9385V34.6641ZM52.499 35.0303H50.8115V36.1729H52.792V36.8789H49.9326V32.6133H52.7861V33.3252H50.8115V34.3418H52.499V35.0303ZM56.5771 33.3252H55.2705V36.8789H54.3916V33.3252H53.1025V32.6133H56.5771V33.3252ZM59.6475 35.0303H57.96V36.1729H59.9404V36.8789H57.0811V32.6133H59.9346V33.3252H57.96V34.3418H59.6475V35.0303ZM62.0352 35.3174H61.335V36.8789H60.4561V32.6133H62.041C62.5449 32.6133 62.9336 32.7256 63.207 32.9502C63.4805 33.1748 63.6172 33.4922 63.6172 33.9023C63.6172 34.1934 63.5537 34.4365 63.4268 34.6318C63.3018 34.8252 63.1113 34.9795 62.8555 35.0947L63.7783 36.8379V36.8789H62.835L62.0352 35.3174ZM61.335 34.6055H62.0439C62.2646 34.6055 62.4355 34.5498 62.5566 34.4385C62.6777 34.3252 62.7383 34.1699 62.7383 33.9727C62.7383 33.7715 62.6807 33.6133 62.5654 33.498C62.4521 33.3828 62.2773 33.3252 62.041 33.3252H61.335V34.6055ZM66.5 35.7598C66.5 35.5938 66.4414 35.4668 66.3242 35.3789C66.207 35.2891 65.9961 35.1953 65.6914 35.0977C65.3867 34.998 65.1455 34.9004 64.9678 34.8047C64.4834 34.543 64.2412 34.1904 64.2412 33.7471C64.2412 33.5166 64.3057 33.3115 64.4346 33.1318C64.5654 32.9502 64.752 32.8086 64.9941 32.707C65.2383 32.6055 65.5117 32.5547 65.8145 32.5547C66.1191 32.5547 66.3906 32.6104 66.6289 32.7217C66.8672 32.8311 67.0518 32.9863 67.1826 33.1875C67.3154 33.3887 67.3818 33.6172 67.3818 33.873H66.5029C66.5029 33.6777 66.4414 33.5264 66.3184 33.4189C66.1953 33.3096 66.0225 33.2549 65.7998 33.2549C65.585 33.2549 65.418 33.3008 65.2988 33.3926C65.1797 33.4824 65.1201 33.6016 65.1201 33.75C65.1201 33.8887 65.1895 34.0049 65.3281 34.0986C65.4688 34.1924 65.6748 34.2803 65.9463 34.3623C66.4463 34.5127 66.8105 34.6992 67.0391 34.9219C67.2676 35.1445 67.3818 35.4219 67.3818 35.7539C67.3818 36.123 67.2422 36.4131 66.9629 36.624C66.6836 36.833 66.3076 36.9375 65.835 36.9375C65.5068 36.9375 65.208 36.8779 64.9385 36.7588C64.6689 36.6377 64.4629 36.4727 64.3203 36.2637C64.1797 36.0547 64.1094 35.8125 64.1094 35.5371H64.9912C64.9912 36.0078 65.2725 36.2432 65.835 36.2432C66.0439 36.2432 66.207 36.2012 66.3242 36.1172C66.4414 36.0312 66.5 35.9121 66.5 35.7598Z" fill="#AFB1B8"/>
</svg>
